<svg preserveAspectRatio="xMidYMid meet" data-bbox="16.8 24.496 100.738 100.704" viewBox="16.8 24.496 100.738 100.704" xmlns="http://www.w3.org/2000/svg" data-type="color" role="presentation" aria-hidden="true" aria-labelledby="svgcid--tp0yhq-po4aa7"><title id="svgcid--tp0yhq-po4aa7"/>
    <g>
        <path d="M117.4 32c-.2-4-3.4-7.2-7.4-7.4-8.1-.4-23.8 0-38.9 7.8-7.7 4-15.8 10.7-22.3 18.5-.1.1-.2.2-.2.3l-14.7 1.1c-2.4.2-4.6 1.5-5.9 3.5L17.8 71c-1 1.5-1.2 3.5-.4 5.2.7 1.7 2.3 2.9 4.1 3.1l12.4 1.9c0 .2-.1.5-.1.7-.4 2.5.4 5 2.2 6.8L53.3 106c1.5 1.5 3.5 2.3 5.5 2.3.4 0 .8 0 1.3-.1.2 0 .5-.1.7-.1l1.9 12.4c.3 1.8 1.5 3.4 3.1 4.1.7.3 1.4.5 2.2.5 1 0 2.1-.3 3-.9l15.2-10.1c2-1.3 3.3-3.5 3.5-5.9l1.1-14.7c.1-.1.2-.2.3-.2 7.8-6.5 14.5-14.6 18.5-22.3 7.8-15.1 8.3-30.9 7.8-39zm-34.5 77.3-14.5 9.6-1.9-12.1c6.1-1.8 12.2-4.7 18-8.6l-.7 9.6c0 .6-.4 1.1-.9 1.5zm-25.5-7.4L40.1 84.6c-.4-.4-.6-1.1-.5-1.7.5-3.1 1.3-6 2.3-8.8L67.8 100c-3.3 1.2-6.3 1.9-8.8 2.3-.5.3-1.1.1-1.6-.4zM34.2 58.2l9.6-.7c-3.9 5.8-6.8 11.9-8.6 18l-12.1-1.9 9.6-14.5c.4-.5.9-.8 1.5-.9zm53.1 30.5c-4.8 4-9.4 6.8-13.6 8.9L44.4 68.3c2.7-5.6 6-10.2 8.9-13.6 6-7.2 13.5-13.4 20.5-17.1 13.9-7.2 28.4-7.6 35.9-7.1 1 .1 1.8.8 1.8 1.8.4 7.5 0 22.1-7.1 35.9-3.6 7.1-9.9 14.5-17.1 20.5z" fill="#121212" data-color="1"/>
        <path d="M85.8 70.9c3.8 0 7.5-1.4 10.4-4.3 2.8-2.8 4.3-6.5 4.3-10.4s-1.5-7.6-4.3-10.4c-5.7-5.7-15.1-5.7-20.8 0-2.8 2.8-4.3 6.5-4.3 10.4s1.5 7.6 4.3 10.4c2.9 2.9 6.7 4.3 10.4 4.3zm-6.2-21c1.7-1.7 4-2.6 6.3-2.6s4.5.9 6.3 2.6c1.7 1.7 2.6 3.9 2.6 6.3s-.9 4.6-2.6 6.3c-3.4 3.4-9.1 3.4-12.5 0-1.7-1.7-2.6-3.9-2.6-6.3-.1-2.4.8-4.6 2.5-6.3z" fill="#ffd301" data-color="2"/>
        <path d="M19.9 107.4c.8 0 1.5-.3 2.1-.9l9.6-9.6c1.2-1.2 1.2-3 0-4.2-1.2-1.2-3-1.2-4.2 0l-9.6 9.6c-1.2 1.2-1.2 3 0 4.2.6.6 1.4.9 2.1.9z" fill="#ffd301" data-color="2"/>
        <path d="M40.4 101.6c-1.2-1.2-3-1.2-4.2 0l-18.5 18.5c-1.2 1.2-1.2 3 0 4.2.6.6 1.3.9 2.1.9s1.5-.3 2.1-.9l18.5-18.5c1.2-1.2 1.2-3.1 0-4.2z" fill="#ffd301" data-color="2"/>
        <path d="m45.1 110.4-9.6 9.6c-1.2 1.2-1.2 3 0 4.2.6.6 1.3.9 2.1.9s1.5-.3 2.1-.9l9.6-9.6c1.2-1.2 1.2-3 0-4.2-1.2-1.1-3.1-1.1-4.2 0z" fill="#ffd301" data-color="2"/>
    </g>
</svg>