<svg preserveAspectRatio="xMidYMid meet" data-bbox="18.036 25.402 110.637 105.498" viewBox="18.036 25.402 110.637 105.498" xmlns="http://www.w3.org/2000/svg" data-type="color" role="presentation" aria-hidden="true" aria-labelledby="svgcid--5tjo34-6g75y9"><title id="svgcid--5tjo34-6g75y9"/>
    <g>
        <path d="m107.5 55.1-18.3-2.7L81 35.9c-3.2-6.4-12.3-6.4-15.4 0l-8.2 16.6-18.3 2.7c-7.1 1-9.9 9.7-4.8 14.7l13.2 12.9-3.1 18.2c-1.2 7 6.2 12.4 12.5 9.1l16.3-8.6 16.3 8.6c6.3 3.3 13.7-2 12.5-9.1l-3-18.3 13.2-12.9c5.2-5 2.3-13.6-4.7-14.7zm-.4 9.4L92.5 78.8c-.9.8-1.3 2.1-1.1 3.3l3.4 20.1c.2 1-.9 1.8-1.8 1.3L75 94c-1.1-.6-2.4-.6-3.4 0l-18.1 9.5c-.9.5-2-.3-1.8-1.3L55.2 82c.2-1.2-.2-2.4-1.1-3.3L39.5 64.5c-.7-.7-.3-2 .7-2.1l20.2-2.9c1.2-.2 2.2-.9 2.8-2l9-18.3c.5-.9 1.8-.9 2.2 0l9 18.3c.5 1.1 1.6 1.8 2.8 2l20.2 2.9c1 .2 1.4 1.4.7 2.1z" fill="#121212" data-color="1"/>
        <path d="m47.1 33-4.4-6.1c-1.2-1.6-3.5-2-5.2-.8-1.6 1.2-2 3.5-.8 5.2l4.4 6.1c1.2 1.6 3.5 2 5.2.8 1.6-1.3 2-3.6.8-5.2z" fill="#ffd301" data-color="2"/>
        <path d="M32.5 87.4c-.6-1.9-2.7-3-4.6-2.4l-7.3 2.4c-1.9.6-3 2.7-2.4 4.6.6 1.9 2.7 3 4.6 2.4l7.3-2.4c1.9-.6 3-2.7 2.4-4.6z" fill="#ffd301" data-color="2"/>
        <path d="M109.1 26.1c-1.6-1.2-4-.8-5.2.8L99.5 33c-1.2 1.6-.8 4 .8 5.2 1.6 1.2 4 .8 5.2-.8l4.4-6.1c1.2-1.7.9-4-.8-5.2z" fill="#ffd301" data-color="2"/>
        <path d="m126.1 87.4-7.3-2.4c-1.9-.6-4 .4-4.6 2.4s.4 4 2.4 4.6l7.3 2.4c1.9.6 4-.4 4.6-2.4.6-1.9-.4-4-2.4-4.6z" fill="#ffd301" data-color="2"/>
        <path d="M73.3 116c-2 0-3.7 1.7-3.7 3.7v7.5c0 2 1.7 3.7 3.7 3.7s3.7-1.7 3.7-3.7v-7.5c0-2.1-1.6-3.7-3.7-3.7z" fill="#ffd301" data-color="2"/>
    </g>
</svg>