<svg preserveAspectRatio="xMidYMid meet" data-bbox="23.2 18.6 90.6 103.3" viewBox="23.2 18.6 90.6 103.3" xmlns="http://www.w3.org/2000/svg" data-type="color" role="presentation" aria-hidden="true" aria-labelledby="svgcid-opj9rxsmqu0h"><title id="svgcid-opj9rxsmqu0h"/>
    <g>
        <path d="M111.5 82.2c1.4-1.6 2.3-3.7 2.3-6 0-5-4.1-9-9.1-9l-17.6.1C88.8 62 89.5 55 89.5 52v-3c0-6.7-5.5-12-12.1-12h-3c-1.4 0-2.6 1-2.9 2.3l-1.6 6.6c-2.3 9.2-9.5 19.4-17.1 21.3-1.3-3.3-4.6-5.7-8.5-5.7l-18.1.1c-1.7 0-3 1.4-3 3l.3 54.3c0 1.7 1.4 3 3 3l18.1-.1c3.6 0 6.7-2.1 8.1-5.2l10.4 3.4c3.4 1.1 6.9 1.7 10.5 1.6l25.3-.1c5 0 9-4.1 9-9.1 0-1.2-.2-2.3-.7-3.3 3.8-1.1 6.6-4.6 6.6-8.8 0-2.3-.9-4.4-2.3-6 1.4-1.6 2.3-3.7 2.3-6 0-2.4-.9-4.5-2.3-6.1zm-63.9 30.5c0 1.7-1.3 3-3 3l-15.1.1-.3-48.3 15.1-.1c1.7 0 3 1.3 3 3l.3 42.3zm51.1-27.4h6c1.7 0 3 1.3 3 3s-1.3 3-3 3h-6c-1.7 0-3 1.4-3 3 0 1.7 1.4 3 3 3h6c1.7 0 3 1.3 3 3s-1.3 3-3 3h-6c-1.7 0-3 1.4-3 3 0 1.7 1.4 3 3 3 1.7 0 3 1.3 3 3s-1.3 3-3 3l-25.3.1c-2.9 0-5.8-.4-8.6-1.3l-11.4-3.7-.2-37.3c4.7-.9 9.3-3.9 13.5-8.9 4.1-4.8 7.3-11.2 8.8-17l1-4.3h.7c3.3 0 6 2.7 6.1 6v3c0 4.1-1.2 11.8-2.8 15.3h-6.2c-1.7 0-3 1.4-3 3 0 1.7 1.4 3 3 3l30.2-.2c1.7 0 3 1.3 3 3s-1.3 3-3 3h-6c-1.7 0-3 1.4-3 3 .2 1.9 1.6 3.3 3.2 3.3z" fill="#121212" data-color="1"/>
        <path d="M80.3 18.6c-1.7 0-3 1.4-3 3v6.2c0 1.7 1.4 3 3 3s3-1.4 3-3v-6.2c0-1.7-1.4-3-3-3z" fill="#ffd301" data-color="2"/>
        <path d="m67.5 31.9-4.3-4.2c-1.2-1.2-3.1-1.2-4.3 0-1.2 1.2-1.2 3.1 0 4.3l4.3 4.2c1.2 1.2 3.1 1.2 4.3 0 1.2-1.2 1.2-3.1 0-4.3z" fill="#ffd301" data-color="2"/>
        <path d="M101.7 27.5c-1.2-1.2-3.1-1.2-4.3 0l-4.2 4.3c-1.2 1.2-1.2 3.1 0 4.3 1.2 1.2 3.1 1.2 4.3 0l4.2-4.3c1.2-1.2 1.2-3.1 0-4.3z" fill="#ffd301" data-color="2"/>
    </g>
</svg>