<svg preserveAspectRatio="xMidYMid meet" data-bbox="28.2 29.1 85.4 85.4" viewBox="28.2 29.1 85.4 85.4" xmlns="http://www.w3.org/2000/svg" data-type="color" role="presentation" aria-hidden="true" aria-labelledby="svgcid--nmxk9g-436a87"><title id="svgcid--nmxk9g-436a87"/>
    <g>
        <path d="M86.6 78.6c-1.6-1-3.6-.5-4.6 1 0 .1-4.2 6.5-11.2 6.5s-11.2-6.4-11.2-6.5c-1-1.6-3.1-2-4.6-1-1.6 1-2 3.1-1 4.6.2.4 6.2 9.6 16.8 9.6s16.6-9.2 16.8-9.6c1-1.5.5-3.6-1-4.6zM56.3 56.1c2.3 0 4.2 1.9 4.2 4.2s-1.9 4.2-4.2 4.2c-2.3 0-4.2-1.9-4.2-4.2s1.9-4.2 4.2-4.2zm25 4.1c0 2.3 1.9 4.2 4.2 4.2s4.2-1.9 4.2-4.2-1.9-4.2-4.2-4.2-4.2 1.9-4.2 4.2z" fill="#ffd301" data-color="1"/>
        <path d="M101.1 41.6C93 33.5 82.3 29.1 70.9 29.1c-11.4 0-22.1 4.4-30.2 12.5-8.1 8.1-12.5 18.8-12.5 30.2s4.4 22.1 12.5 30.2c8.1 8.1 18.8 12.5 30.2 12.5 11.4 0 22.1-4.4 30.2-12.5 8.1-8.1 12.5-18.8 12.5-30.2s-4.5-22.2-12.5-30.2zm-30.2 66.2c-19.9 0-36-16.2-36-36s16.2-36 36-36 36 16.2 36 36-16.2 36-36 36z" fill="#121212" data-color="2"/>
    </g>
</svg>